<svg xmlns="http://www.w3.org/2000/svg" width="24" height="24" viewBox="0 0 24 24" fill="none">
  <path d="M20.52 3.48A11.94 11.94 0 0 0 12.06 0C5.64.03.45 5.2.48 11.63a11.6 11.6 0 0 0 1.57 5.87L0 24l6.69-1.95a11.93 11.93 0 0 0 5.37 1.34h.05c6.42 0 11.61-5.17 11.58-11.6a11.52 11.52 0 0 0-3.17-8.31ZM12.11 21.3h-.04a9.8 9.8 0 0 1-5-1.37l-.36-.21-3.97 1.16 1.14-3.87-.24-.4a9.8 9.8 0 0 1-1.48-5.2C2.15 6.4 6.4 2.17 11.98 2.17c2.62 0 5.08 1.02 6.94 2.88a9.75 9.75 0 0 1 2.85 6.9c.03 5.59-4.55 10.15-10.66 10.15Zm5.86-7.49c-.32-.16-1.9-.94-2.19-1.05-.29-.1-.5-.16-.72.16-.21.32-.83 1.05-1.02 1.27-.19.21-.38.24-.7.08-.32-.16-1.35-.5-2.57-1.6-.95-.84-1.6-1.88-1.79-2.2-.19-.32-.02-.5.14-.66.14-.14.32-.38.48-.57.16-.19.21-.32.32-.54.1-.21.05-.4-.03-.57-.08-.16-.72-1.73-.99-2.37-.26-.63-.53-.54-.72-.55h-.62c-.21 0-.55.08-.83.4-.29.32-1.1 1.08-1.1 2.64 0 1.56 1.13 3.07 1.29 3.28.16.21 2.23 3.4 5.4 4.76.76.33 1.35.52 1.81.67.76.24 1.45.21 2 .13.61-.09 1.9-.78 2.17-1.53.27-.75.27-1.39.19-1.53-.08-.13-.29-.21-.61-.37Z" fill="#FFFFFF"/>
</svg>

